# xmcd
#
# Track frame offsets:
#	150
#	21449
#	32637
#	47704
#	69107
#	93684
#	103740
#	117165
#	144703
#	154324
#	172251
#
# Disc length: 2697 seconds
#
# Revision: 1
# Processed by: cddbd v1.5.1PL2 Copyright (c) Steve Scherf et al.
# Submitted via: audiograbber 1.83.01
#
DISCID=9b0a870b
DTITLE=Alaska - 1994-10-01 - 15 Mile House - Owings Mills MD
DYEAR=1994
DGENRE=Progressive Rock
TTITLE0=Pretzel Logic
TTITLE1=Mississippi Queen
TTITLE2=The Royal Road
TTITLE3=Perfect Strangers
TTITLE4=Hunger
TTITLE5=Do You Feel Like We Do
TTITLE6=Throw The Horse Over The Fence Some Hay (Oncet)
TTITLE7=Cliffs Of Dover
TTITLE8=Ralph's Other Ball
TTITLE9=Reaching For The Light
TTITLE10=Hocus Pocus
EXTD=
EXTT0=
EXTT1=
EXTT2=
EXTT3=
EXTT4=
EXTT5=
EXTT6=
EXTT7=
EXTT8=
EXTT9=
EXTT10=
PLAYORDER=
